# xmcd
#
# Track frame offsets: 
#        150
#        18835
#        37289
#        59155
#        75520
#        95889
#        113474
#        131029
#        146680
#        161263
#        179521
#        199203
#
# Disc length: 3112 seconds
#
# Revision: 0
# Processed by: cddbd v1.5.2PL0 Copyright (c) Steve Scherf et al.
# Submitted via: ExactAudioCopyFreeDBPlugin 1.0
#
DISCID=aa0c260c
DTITLE=Tracy Huang - Tracy Lullaby
DYEAR=2012
DGENRE=Blues
TTITLE0=Counting Sheep
TTITLE1=Together Forever
TTITLE2=On The Way Home
TTITLE3=Jasmine Flower
TTITLE4=My Dear Baby
TTITLE5=This World
TTITLE6=Rainbow Connection
TTITLE7=Dream a Little Dream of Me
TTITLE8=Angel Baby
TTITLE9=Everything I Know
TTITLE10=Imagine
TTITLE11=Brahms Lullaby
EXTD=
EXTT0=
EXTT1=
EXTT2=
EXTT3=
EXTT4=
EXTT5=
EXTT6=
EXTT7=
EXTT8=
EXTT9=
EXTT10=
EXTT11=
PLAYORDER=
